HIERARCHY
ROOT Hips
{
	OFFSET 0.000000 87.230942 0.000000
	CHANNELS 6 Xposition Yposition Zposition Xrotation Yrotation Zrotation
	JOINT Pelvis
	{
		OFFSET 0.000000 0.000000 0.000000
		CHANNELS 3 Xrotation Yrotation Zrotation
		JOINT LeftUpLeg
		{
			OFFSET 12.017000 -9.376404 -2.439400
			CHANNELS 3 Xrotation Yrotation Zrotation
			JOINT LeftLeg
			{
				OFFSET -0.007312 -32.846973 2.110600
				CHANNELS 3 Xrotation Yrotation Zrotation
				JOINT LeftFoot
				{
					OFFSET 0.007312 -32.065170 -0.570400
					CHANNELS 3 Xrotation Yrotation Zrotation
					JOINT LeftToeBase
					{
						OFFSET 0.728300 -11.045900 13.180700
						CHANNELS 3 Xrotation Yrotation Zrotation
						End Site
						{
							OFFSET 0.000000 17.212589 0.000000
						}
					}
				}
				JOINT LeftPantLeg
				{
					OFFSET 0.002788 -16.709013 -3.143600
					CHANNELS 3 Xrotation Yrotation Zrotation
					End Site
					{
						OFFSET -0.605125 24.528742 0.000000
					}
				}
			}
			JOINT Left_Butt
			{
				OFFSET -6.630234 1.326584 -3.183700
				CHANNELS 3 Xrotation Yrotation Zrotation
				End Site
				{
					OFFSET -0.498041 20.188049 0.000000
				}
			}
		}
		JOINT RightUpLeg
		{
			OFFSET -11.717000 -9.376404 -2.439400
			CHANNELS 3 Xrotation Yrotation Zrotation
			JOINT RightLeg
			{
				OFFSET -0.003241 -32.846912 2.110600
				CHANNELS 3 Xrotation Yrotation Zrotation
				JOINT RightFoot
				{
					OFFSET 0.003241 -32.065136 -0.570500
					CHANNELS 3 Xrotation Yrotation Zrotation
					JOINT RightToeBase
					{
						OFFSET -0.728300 -11.045901 13.180700
						CHANNELS 3 Xrotation Yrotation Zrotation
						End Site
						{
							OFFSET 0.000000 17.212593 0.000000
						}
					}
				}
				JOINT RightPantLeg
				{
					OFFSET 0.008142 -16.708982 -3.143700
					CHANNELS 3 Xrotation Yrotation Zrotation
					End Site
					{
						OFFSET 0.605088 24.528715 0.000000
					}
				}
			}
			JOINT Right_Butt
			{
				OFFSET 6.630732 1.326584 -3.183700
				CHANNELS 3 Xrotation Yrotation Zrotation
				End Site
				{
					OFFSET 0.498015 20.188240 0.000000
				}
			}
		}
	}
	JOINT Spine
	{
		OFFSET -0.062400 7.848404 3.918300
		CHANNELS 3 Xrotation Yrotation Zrotation
		JOINT Spine1
		{
			OFFSET -0.072800 11.422302 0.713400
			CHANNELS 3 Xrotation Yrotation Zrotation
			JOINT Spine2
			{
				OFFSET -0.083200 13.054001 -1.931600
				CHANNELS 3 Xrotation Yrotation Zrotation
				JOINT Neck
				{
					OFFSET -0.092200 14.121796 -5.138800
					CHANNELS 3 Xrotation Yrotation Zrotation
					JOINT Head
					{
						OFFSET 0.000200 10.447403 -0.842000
						CHANNELS 3 Xrotation Yrotation Zrotation
						JOINT Visor
						{
							OFFSET 0.457100 25.671204 16.550400
							CHANNELS 3 Xrotation Yrotation Zrotation
							End Site
							{
								OFFSET 0.000000 26.061493 0.000000
							}
						}
						JOINT HairMidA
						{
							OFFSET 0.459400 31.585403 8.437400
							CHANNELS 3 Xrotation Yrotation Zrotation
							End Site
							{
								OFFSET 0.000000 26.061493 0.000000
							}
						}
						JOINT HairMidB
						{
							OFFSET 0.464000 33.309204 -8.389700
							CHANNELS 3 Xrotation Yrotation Zrotation
							End Site
							{
								OFFSET 0.000000 26.061493 0.000000
							}
						}
						JOINT HairMidC
						{
							OFFSET 0.466600 27.991196 -17.375099
							CHANNELS 3 Xrotation Yrotation Zrotation
							End Site
							{
								OFFSET 0.000000 26.061493 0.000000
							}
						}
						JOINT HairMidD
						{
							OFFSET 0.467700 17.888092 -21.169500
							CHANNELS 3 Xrotation Yrotation Zrotation
							End Site
							{
								OFFSET 0.000000 26.061493 0.000000
							}
						}
						JOINT HairMidE
						{
							OFFSET 5.325700 3.514603 -14.369699
							CHANNELS 3 Xrotation Yrotation Zrotation
							End Site
							{
								OFFSET 0.000000 26.061493 0.000000
							}
						}
						JOINT HairMidF
						{
							OFFSET -4.394100 3.514603 -14.372400
							CHANNELS 3 Xrotation Yrotation Zrotation
							End Site
							{
								OFFSET 0.000000 26.061493 0.000000
							}
						}
						JOINT HairLeftA
						{
							OFFSET 15.319900 25.746506 2.623300
							CHANNELS 3 Xrotation Yrotation Zrotation
							End Site
							{
								OFFSET 0.000000 26.061493 0.000000
							}
						}
						JOINT HairLeftB
						{
							OFFSET 12.619500 29.289398 -8.731499
							CHANNELS 3 Xrotation Yrotation Zrotation
							End Site
							{
								OFFSET 0.000000 26.061493 0.000000
							}
						}
						JOINT HairLeftC
						{
							OFFSET 15.714800 15.959900 2.909800
							CHANNELS 3 Xrotation Yrotation Zrotation
							End Site
							{
								OFFSET 0.000000 26.061493 0.000000
							}
						}
						JOINT HairLeftD
						{
							OFFSET 16.101700 18.437408 -7.553200
							CHANNELS 3 Xrotation Yrotation Zrotation
							End Site
							{
								OFFSET 0.000000 26.061493 0.000000
							}
						}
						JOINT HairLeftE
						{
							OFFSET 9.731900 17.915009 -18.316799
							CHANNELS 3 Xrotation Yrotation Zrotation
							End Site
							{
								OFFSET 0.000000 26.061493 0.000000
							}
						}
						JOINT HairLeftF
						{
							OFFSET 11.204300 4.953598 -9.668100
							CHANNELS 3 Xrotation Yrotation Zrotation
							End Site
							{
								OFFSET 0.000000 26.061493 0.000000
							}
						}
						JOINT HairRightA
						{
							OFFSET -14.397900 25.746307 2.615100
							CHANNELS 3 Xrotation Yrotation Zrotation
							End Site
							{
								OFFSET 0.000000 26.061493 0.000000
							}
						}
						JOINT HairRightB
						{
							OFFSET -11.691200 29.289200 -8.738199
							CHANNELS 3 Xrotation Yrotation Zrotation
							End Site
							{
								OFFSET 0.000000 26.061493 0.000000
							}
						}
						JOINT HairRightC
						{
							OFFSET -14.792900 15.959702 2.901400
							CHANNELS 3 Xrotation Yrotation Zrotation
							End Site
							{
								OFFSET 0.000000 26.061493 0.000000
							}
						}
						JOINT HairRightD
						{
							OFFSET -15.174000 18.437195 -7.561900
							CHANNELS 3 Xrotation Yrotation Zrotation
							End Site
							{
								OFFSET 0.000000 26.061493 0.000000
							}
						}
						JOINT HairRightE
						{
							OFFSET -8.798200 17.914902 -18.322001
							CHANNELS 3 Xrotation Yrotation Zrotation
							End Site
							{
								OFFSET 0.000000 26.061493 0.000000
							}
						}
						JOINT HairRightF
						{
							OFFSET -10.275200 4.953506 -9.674099
							CHANNELS 3 Xrotation Yrotation Zrotation
							End Site
							{
								OFFSET 0.000000 26.061493 0.000000
							}
						}
					}
				}
				JOINT LeftShoulder
				{
					OFFSET 5.133500 7.341202 -1.867600
					CHANNELS 3 Xrotation Yrotation Zrotation
					JOINT LeftArm
					{
						OFFSET 8.072663 0.936867 -2.176600
						CHANNELS 3 Xrotation Yrotation Zrotation
						JOINT LeftForeArm
						{
							OFFSET 31.271999 0.000000 0.000000
							CHANNELS 3 Xrotation Yrotation Zrotation
							JOINT LeftHand
							{
								OFFSET 31.771030 0.000000 0.000000
								CHANNELS 3 Xrotation Yrotation Zrotation
								JOINT LeftHandThumb1
								{
									OFFSET 2.886520 -2.557846 4.416640
									CHANNELS 3 Xrotation Yrotation Zrotation
									JOINT LeftHandThumb2
									{
										OFFSET 2.371025 -1.368912 1.368911
										CHANNELS 3 Xrotation Yrotation Zrotation
										JOINT LeftHandThumb3
										{
											OFFSET 2.243378 -1.295212 1.295213
											CHANNELS 3 Xrotation Yrotation Zrotation
											End Site
											{
												OFFSET -0.332611 2.876945 0.020015
											}
										}
									}
								}
								JOINT LeftHandIndex1
								{
									OFFSET 8.568985 -0.641945 3.119977
									CHANNELS 3 Xrotation Yrotation Zrotation
									JOINT LeftHandIndex2
									{
										OFFSET 3.348503 0.000000 0.000000
										CHANNELS 3 Xrotation Yrotation Zrotation
										JOINT LeftHandIndex3
										{
											OFFSET 3.314552 0.000000 0.000000
											CHANNELS 3 Xrotation Yrotation Zrotation
											End Site
											{
												OFFSET -1.032898 3.075485 0.678796
											}
										}
									}
								}
								JOINT LeftHandMiddle1
								{
									OFFSET 8.124603 0.000000 0.000000
									CHANNELS 3 Xrotation Yrotation Zrotation
									JOINT LeftHandMiddle2
									{
										OFFSET 4.166275 0.000000 0.000000
										CHANNELS 3 Xrotation Yrotation Zrotation
										JOINT LeftHandMiddle3
										{
											OFFSET 3.018135 0.000000 0.000000
											CHANNELS 3 Xrotation Yrotation Zrotation
											End Site
											{
												OFFSET -1.032700 2.767982 0.617226
											}
										}
									}
								}
								JOINT LeftHandRing1
								{
									OFFSET 8.571686 -0.031357 -2.884048
									CHANNELS 3 Xrotation Yrotation Zrotation
									JOINT LeftHandRing2
									{
										OFFSET 3.671181 0.000000 0.000000
										CHANNELS 3 Xrotation Yrotation Zrotation
										JOINT LeftHandRing3
										{
											OFFSET 2.728851 0.000000 0.000000
											CHANNELS 3 Xrotation Yrotation Zrotation
											End Site
											{
												OFFSET -0.815796 2.539223 0.577389
											}
										}
									}
								}
								JOINT LeftHandPinky1
								{
									OFFSET 7.854515 -0.675232 -5.213020
									CHANNELS 3 Xrotation Yrotation Zrotation
									JOINT LeftHandPinky2
									{
										OFFSET 3.068596 0.000000 0.000000
										CHANNELS 3 Xrotation Yrotation Zrotation
										JOINT LeftHandPinky3
										{
											OFFSET 2.396042 0.000000 0.000000
											CHANNELS 3 Xrotation Yrotation Zrotation
											End Site
											{
												OFFSET -0.524597 2.267998 0.567429
											}
										}
									}
								}
							}
							JOINT LeftSleeve
							{
								OFFSET 19.684509 -0.200119 0.476146
								CHANNELS 3 Xrotation Yrotation Zrotation
								End Site
								{
									OFFSET -0.031017 25.731133 -0.002868
								}
							}
						}
					}
				}
				JOINT RightShoulder
				{
					OFFSET -4.395900 7.341202 -1.870200
					CHANNELS 3 Xrotation Yrotation Zrotation
					JOINT RightArm
					{
						OFFSET -8.071453 0.936867 -2.181100
						CHANNELS 3 Xrotation Yrotation Zrotation
						JOINT RightForeArm
						{
							OFFSET -31.272011 0.000000 0.000000
							CHANNELS 3 Xrotation Yrotation Zrotation
							JOINT RightHand
							{
								OFFSET -31.771019 0.000000 0.000000
								CHANNELS 3 Xrotation Yrotation Zrotation
								JOINT RightHandThumb1
								{
									OFFSET -2.886520 -2.557808 4.416626
									CHANNELS 3 Xrotation Yrotation Zrotation
									JOINT RightHandThumb2
									{
										OFFSET -2.371056 -1.368927 1.368928
										CHANNELS 3 Xrotation Yrotation Zrotation
										JOINT RightHandThumb3
										{
											OFFSET -2.243362 -1.295204 1.295206
											CHANNELS 3 Xrotation Yrotation Zrotation
											End Site
											{
												OFFSET 0.332642 2.876938 0.020047
											}
										}
									}
								}
								JOINT RightHandIndex1
								{
									OFFSET -8.568993 -0.641953 3.120017
									CHANNELS 3 Xrotation Yrotation Zrotation
									JOINT RightHandIndex2
									{
										OFFSET -3.348518 0.000000 0.000000
										CHANNELS 3 Xrotation Yrotation Zrotation
										JOINT RightHandIndex3
										{
											OFFSET -3.314552 0.000000 0.000000
											CHANNELS 3 Xrotation Yrotation Zrotation
											End Site
											{
												OFFSET 1.032898 3.075478 0.678804
											}
										}
									}
								}
								JOINT RightHandMiddle1
								{
									OFFSET -8.124588 0.000000 0.000000
									CHANNELS 3 Xrotation Yrotation Zrotation
									JOINT RightHandMiddle2
									{
										OFFSET -4.166275 0.000000 0.000000
										CHANNELS 3 Xrotation Yrotation Zrotation
										JOINT RightHandMiddle3
										{
											OFFSET -3.018097 0.000000 0.000000
											CHANNELS 3 Xrotation Yrotation Zrotation
											End Site
											{
												OFFSET 1.032700 2.767937 0.617197
											}
										}
									}
								}
								JOINT RightHandRing1
								{
									OFFSET -8.571747 -0.031349 -2.884061
									CHANNELS 3 Xrotation Yrotation Zrotation
									JOINT RightHandRing2
									{
										OFFSET -3.671204 0.000000 0.000000
										CHANNELS 3 Xrotation Yrotation Zrotation
										JOINT RightHandRing3
										{
											OFFSET -2.728874 0.000000 0.000000
											CHANNELS 3 Xrotation Yrotation Zrotation
											End Site
											{
												OFFSET 0.815804 2.539261 0.577413
											}
										}
									}
								}
								JOINT RightHandPinky1
								{
									OFFSET -7.854561 -0.675247 -5.212970
									CHANNELS 3 Xrotation Yrotation Zrotation
									JOINT RightHandPinky2
									{
										OFFSET -3.068550 0.000000 0.000000
										CHANNELS 3 Xrotation Yrotation Zrotation
										JOINT RightHandPinky3
										{
											OFFSET -2.395981 0.000000 0.000000
											CHANNELS 3 Xrotation Yrotation Zrotation
											End Site
											{
												OFFSET 0.524605 2.267952 0.567413
											}
										}
									}
								}
							}
							JOINT RightSleeve
							{
								OFFSET -19.684753 -0.200165 0.476065
								CHANNELS 3 Xrotation Yrotation Zrotation
								End Site
								{
									OFFSET 0.031342 25.731255 -0.002917
								}
							}
						}
					}
				}
				JOINT Hood
				{
					OFFSET 0.369700 14.447800 -5.317800
					CHANNELS 3 Xrotation Yrotation Zrotation
					JOINT Hood1
					{
						OFFSET 0.001700 -5.553802 -5.895100
						CHANNELS 3 Xrotation Yrotation Zrotation
						JOINT Hood2
						{
							OFFSET -0.000200 -8.380501 0.763600
							CHANNELS 3 Xrotation Yrotation Zrotation
							End Site
							{
								OFFSET 0.000000 8.415215 0.000000
							}
						}
					}
				}
				JOINT Left_Breast
				{
					OFFSET 5.682500 3.120102 3.188800
					CHANNELS 3 Xrotation Yrotation Zrotation
					End Site
					{
						OFFSET 0.000000 10.528564 0.000000
					}
				}
				JOINT Right_Breast
				{
					OFFSET -4.947600 3.120102 3.185900
					CHANNELS 3 Xrotation Yrotation Zrotation
					End Site
					{
						OFFSET 0.000000 10.528564 0.000000
					}
				}
				JOINT Whistle
				{
					OFFSET 0.368200 11.471298 0.095400
					CHANNELS 3 Xrotation Yrotation Zrotation
					JOINT Whistle1
					{
						OFFSET -0.002000 -6.349899 7.479800
						CHANNELS 3 Xrotation Yrotation Zrotation
						JOINT Whistle2
						{
							OFFSET -0.001300 -8.217598 4.717600
							CHANNELS 3 Xrotation Yrotation Zrotation
							End Site
							{
								OFFSET 0.000000 9.475479 0.000000
							}
						}
					}
				}
			}
		}
		JOINT Belly
		{
			OFFSET 0.212400 1.593002 3.163700
			CHANNELS 3 Xrotation Yrotation Zrotation
			End Site
			{
				OFFSET 0.000000 7.496635 0.000000
			}
		}
	}
	JOINT FitGrandmaFacialAnim_Joint
	{
		OFFSET 1.150000 -86.211197 -1.220100
		CHANNELS 3 Xrotation Yrotation Zrotation
		End Site
		{
			OFFSET 0.000000 31.666618 0.000000
		}
	}
}
MOTION
Frames: 4
Frame Time: 0.016667
1.952319 74.410049 -2.336250 3.706029 -55.441308 3.472180 -0.000000 0.000002 -0.000000 -41.668744 2.890755 24.191739 47.719472 -4.798236 1.475497 -9.393032 -5.904765 -18.054577 0.000000 0.000002 -0.000000 0.000001 -0.000000 0.000001 0.000003 -0.000000 -0.000001 -35.411280 -23.208313 -38.753117 53.433004 9.952774 -3.797615 -23.222348 -3.926459 20.107083 0.000000 0.000000 -0.000000 0.000003 -0.000000 0.000001 0.000002 -0.000000 -0.000000 10.414444 12.047490 -3.974181 3.762004 4.020628 -2.477474 3.818224 3.984994 -2.462741 0.516752 1.074227 7.089725 -7.298610 30.311218 -5.053252 0.000000 0.000000 0.000000 0.000000 0.000000 0.000000 0.000000 0.000000 0.000000 0.000000 0.000000 0.000000 0.000000 0.000000 0.000000 0.000000 0.000000 0.000000 0.000000 0.000000 0.000000 0.000000 0.000000 0.000000 0.000000 0.000000 0.000000 0.000000 0.000000 0.000000 0.000000 0.000000 0.000000 0.000000 0.000000 0.000000 0.000000 0.000000 0.000000 0.000000 0.000000 0.000000 0.000000 0.000000 0.000000 0.000000 0.000000 0.000000 0.000000 0.000000 0.000000 0.000000 0.000000 0.000000 0.000000 0.000000 0.000000 0.201632 -6.892844 -14.624140 -24.181361 -39.117695 -26.205467 -2.022235 -73.632854 -1.555912 -5.774892 23.551648 40.520514 40.109883 -15.297199 -0.360472 5.639908 28.097807 11.338774 -0.000000 -0.000000 0.000006 6.882259 2.840013 -61.140479 8.247978 7.640029 -89.897898 -0.000001 -0.000003 -0.000000 -2.345528 4.688869 -62.655238 8.754154 9.897055 -87.051246 -0.000002 0.000001 0.000001 -9.042493 10.045639 -60.766199 8.523981 9.508896 -66.892940 0.000000 -0.000002 -0.000000 -17.946879 14.754991 -51.485898 8.868375 8.667011 -84.812098 -0.000003 0.000001 0.000001 0.000001 0.000000 -0.000000 3.144271 20.729238 -9.731359 -14.532872 28.739189 7.272881 -179.799307 72.546649 179.534131 -65.149520 13.409675 -51.164483 0.277443 -1.521464 -1.570544 7.169004 -41.689682 -15.773581 0.000003 0.000001 0.000002 6.412771 -12.738393 14.389481 9.941778 -7.465197 101.743229 0.000001 -0.000001 0.000003 2.653154 -11.302262 44.730878 9.916056 -9.880672 94.351168 0.000000 -0.000000 0.000000 2.140166 -7.454451 61.764977 9.609240 -8.992451 89.388694 -0.000001 -0.000001 -0.000003 -4.886686 -23.798177 68.396087 13.518275 -7.949212 112.864962 -0.000001 -0.000000 -0.000002 -0.000000 0.000002 -0.000001 -0.000000 -0.000003 0.000001 -0.000000 -0.000003 0.000001 -0.000000 -0.000003 0.000001 -0.000000 -0.000003 0.000001 -0.000000 -0.000003 0.000001 -0.000001 -0.000003 0.000001 -0.000002 -0.000001 -0.000000 -0.000002 -0.000001 -0.000000 -0.000000 -0.000002 0.000000 -0.000000 0.000002 -0.000000 
1.994623 74.502914 -2.369061 3.981217 -56.196679 3.629985 0.000000 0.000001 0.000000 -41.512414 3.247121 24.616036 47.549564 -4.935176 1.467614 -9.424707 -5.480801 -18.097464 -0.000000 0.000002 0.000000 -0.000000 -0.000000 0.000001 -0.000002 -0.000000 0.000002 -35.688753 -23.006664 -38.379492 53.073964 9.111857 -3.857609 -22.828850 -2.721971 20.326049 -0.000000 -0.000000 0.000000 -0.000000 0.000000 -0.000000 0.000003 0.000000 0.000001 11.025267 12.385727 -4.552480 3.882951 4.155487 -2.595620 3.940183 4.114882 -2.582873 0.077764 1.097567 7.089562 -9.455424 30.205893 -4.759086 0.000001 -0.000000 0.000000 0.000001 -0.000000 0.000000 0.000001 -0.000000 0.000000 0.000001 -0.000000 0.000000 0.000001 -0.000000 0.000000 0.000001 -0.000000 0.000000 0.000001 -0.000000 0.000000 0.000001 -0.000000 0.000000 0.000001 -0.000000 0.000000 0.000001 -0.000000 0.000000 0.000001 -0.000000 0.000000 0.000001 -0.000000 0.000000 0.000001 -0.000000 0.000000 0.000001 -0.000000 0.000000 0.000001 -0.000000 0.000000 0.000001 -0.000000 0.000000 0.000001 -0.000000 0.000000 0.000001 -0.000000 0.000000 0.000001 -0.000000 0.000000 0.273687 -7.175069 -13.814902 -27.151308 -40.609313 -28.235273 -1.969212 -72.750134 -1.517572 -3.652087 23.449925 41.380657 40.109883 -15.297197 -0.360475 5.639909 28.097814 11.338767 -0.000001 0.000001 0.000003 6.882256 2.840017 -61.140486 8.247978 7.640031 -89.897884 -0.000002 -0.000001 -0.000001 -2.345531 4.688871 -62.655231 8.754156 9.897053 -87.051253 0.000003 -0.000002 -0.000004 -9.042492 10.045641 -60.766192 8.523987 9.508895 -66.892940 -0.000002 -0.000000 0.000000 -17.946882 14.754995 -51.485898 8.868373 8.667012 -84.812085 -0.000004 0.000001 0.000001 0.000005 0.000002 -0.000000 2.514154 21.233545 -6.811738 -5.943697 30.749925 2.272446 -179.151900 73.423810 179.050049 -67.159522 12.064828 -48.542629 0.277474 -1.521467 -1.570568 7.169031 -41.689695 -15.773519 0.000000 0.000002 -0.000002 6.412832 -12.738451 14.389545 9.941788 -7.465159 101.743242 -0.000001 0.000001 -0.000000 2.653152 -11.302297 44.730899 9.916093 -9.880689 94.351195 -0.000001 -0.000002 0.000002 2.140179 -7.454481 61.764998 9.609260 -8.992479 89.388728 0.000000 -0.000002 0.000002 -4.886704 -23.798186 68.396094 13.518231 -7.949241 112.864990 -0.000001 -0.000002 0.000005 -0.000001 -0.000000 -0.000001 0.000002 0.000000 0.000000 0.000002 0.000000 0.000000 0.000002 0.000000 0.000000 0.000002 0.000000 0.000000 0.000002 0.000000 0.000000 0.000002 0.000000 0.000000 -0.000000 -0.000001 0.000001 -0.000000 -0.000001 0.000001 -0.000000 0.000000 -0.000000 0.000000 0.000001 0.000000 
2.072110 74.645752 -2.404213 4.243803 -57.075509 3.758584 -0.000000 0.000000 -0.000000 -41.235925 3.650224 25.063215 47.243807 -5.032102 1.463878 -9.404297 -4.995191 -18.152059 0.000000 0.000002 0.000000 -0.000000 0.000003 -0.000000 -0.000002 0.000001 -0.000002 -35.925245 -22.813093 -37.995215 52.648573 10.472791 -3.761186 -22.321362 -3.370850 19.585912 -0.000000 0.000000 -0.000000 -0.000003 -0.000000 0.000000 0.000006 -0.000001 0.000001 11.611531 12.460392 -5.114771 4.041843 4.210471 -2.712404 4.093329 4.173066 -2.703600 -0.418000 1.150573 7.039629 -11.340493 30.556525 -4.537706 -0.000000 -0.000000 -0.000000 -0.000000 -0.000000 -0.000000 -0.000000 -0.000000 -0.000000 -0.000000 -0.000000 -0.000000 -0.000000 -0.000000 -0.000000 -0.000000 -0.000000 -0.000000 -0.000000 -0.000000 -0.000000 -0.000000 -0.000000 -0.000000 -0.000000 -0.000000 -0.000000 -0.000000 -0.000000 -0.000000 -0.000000 -0.000000 -0.000000 -0.000000 -0.000000 -0.000000 -0.000000 -0.000000 -0.000000 -0.000000 -0.000000 -0.000000 -0.000000 -0.000000 -0.000000 -0.000000 -0.000000 -0.000000 -0.000000 -0.000000 -0.000000 -0.000000 -0.000000 -0.000000 -0.000000 -0.000000 -0.000000 0.377115 -7.436393 -12.890572 -30.060646 -41.102091 -29.619378 -2.081507 -72.317319 -1.635759 -1.913070 23.426593 42.068146 40.109886 -15.297197 -0.360475 5.639906 28.097802 11.338772 0.000000 0.000002 -0.000000 6.882261 2.840017 -61.140486 8.247979 7.640027 -89.897884 0.000001 0.000002 -0.000001 -2.345526 4.688869 -62.655238 8.754153 9.897054 -87.051246 -0.000004 0.000003 0.000001 -9.042488 10.045634 -60.766185 8.523980 9.508895 -66.892940 0.000003 0.000003 -0.000003 -17.946879 14.754991 -51.485894 8.868377 8.667008 -84.812098 -0.000003 -0.000001 -0.000000 0.000002 -0.000001 -0.000003 2.559576 21.019400 -6.830147 -1.561705 33.072066 0.691373 -178.933771 75.268726 179.032140 -68.145945 10.673592 -45.251731 0.277474 -1.521477 -1.570507 7.168967 -41.689610 -15.773576 -0.000000 0.000001 -0.000002 6.412857 -12.738417 14.389551 9.941761 -7.465211 101.743277 -0.000002 -0.000001 0.000003 2.653182 -11.302291 44.730946 9.916087 -9.880680 94.351168 -0.000000 0.000001 -0.000001 2.140190 -7.454481 61.765032 9.609249 -8.992495 89.388687 0.000002 -0.000002 0.000004 -4.886677 -23.798167 68.396135 13.518266 -7.949264 112.864956 -0.000002 -0.000001 0.000002 -0.000002 -0.000003 0.000001 0.000002 0.000001 -0.000000 0.000002 0.000001 -0.000000 0.000002 0.000001 -0.000000 0.000002 0.000001 -0.000000 0.000002 0.000001 -0.000000 0.000002 0.000001 -0.000001 -0.000000 0.000001 -0.000000 -0.000000 0.000001 -0.000000 0.000000 -0.000001 -0.000001 -0.000000 0.000000 -0.000000 
2.174542 74.779602 -2.448872 4.517348 -58.234295 3.887663 0.000000 -0.000000 0.000000 -40.939754 4.183035 25.673397 47.042846 -5.257099 1.450695 -9.466997 -4.306270 -18.197596 0.000000 0.000000 0.000000 -0.000002 -0.000001 -0.000001 -0.000001 -0.000003 -0.000002 -36.212399 -22.450118 -37.441154 52.168599 10.708525 -3.744787 -21.712895 -2.933506 19.300366 0.000000 -0.000000 -0.000000 -0.000003 0.000000 0.000000 -0.000001 0.000001 -0.000001 12.170704 12.248450 -5.641784 4.167028 4.169351 -2.813600 4.213597 4.133995 -2.809062 -0.982839 1.275634 6.942998 -12.696568 31.538805 -4.386472 -0.000000 -0.000000 -0.000000 -0.000000 -0.000000 -0.000000 -0.000000 -0.000000 -0.000000 -0.000000 -0.000000 -0.000000 -0.000000 -0.000000 -0.000000 -0.000000 -0.000000 -0.000000 -0.000000 -0.000000 -0.000000 -0.000000 -0.000000 -0.000000 -0.000000 -0.000000 -0.000000 -0.000000 -0.000000 -0.000000 -0.000000 -0.000000 -0.000000 -0.000000 -0.000000 -0.000000 -0.000000 -0.000000 -0.000000 -0.000000 -0.000000 -0.000000 -0.000000 -0.000000 -0.000000 -0.000000 -0.000000 -0.000000 -0.000000 -0.000000 -0.000000 -0.000000 -0.000000 -0.000000 -0.000000 -0.000000 -0.000000 0.470000 -7.672751 -11.958912 -32.668351 -40.481124 -29.999325 -2.291003 -72.441949 -1.843451 -0.679252 23.671089 42.502925 40.109883 -15.297196 -0.360477 5.639907 28.097802 11.338768 0.000000 0.000002 0.000002 6.882256 2.840015 -61.140479 8.247978 7.640030 -89.897891 -0.000002 0.000000 -0.000003 -2.345532 4.688869 -62.655238 8.754147 9.897051 -87.051246 0.000000 0.000000 -0.000003 -9.042496 10.045636 -60.766192 8.523980 9.508895 -66.892940 -0.000001 -0.000003 -0.000000 -17.946884 14.754993 -51.485894 8.868376 8.667005 -84.812091 -0.000002 -0.000001 -0.000000 -0.000002 -0.000002 -0.000002 1.947810 20.533130 -7.026578 -2.633535 35.447514 2.378814 -179.601395 76.885425 179.927195 -68.793290 7.356033 -41.081167 0.277472 -1.521477 -1.570574 7.169016 -41.689692 -15.773569 0.000002 0.000002 -0.000000 6.412766 -12.738412 14.389523 9.941798 -7.465223 101.743229 -0.000002 -0.000000 0.000001 2.653168 -11.302297 44.730912 9.916110 -9.880678 94.351175 -0.000001 -0.000002 0.000001 2.140153 -7.454497 61.765011 9.609268 -8.992444 89.388721 -0.000000 -0.000002 0.000004 -4.886723 -23.798141 68.396080 13.518237 -7.949266 112.864942 -0.000002 -0.000003 -0.000001 -0.000001 -0.000001 0.000002 0.000003 0.000001 -0.000000 0.000003 0.000001 -0.000000 0.000003 0.000001 -0.000000 0.000003 0.000001 -0.000000 0.000003 0.000001 -0.000000 0.000003 0.000001 -0.000000 -0.000001 -0.000001 0.000000 -0.000001 -0.000001 0.000000 0.000000 -0.000002 0.000001 0.000000 -0.000000 0.000000 
